<svg xmlns="http://www.w3.org/2000/svg" xmlns:xlink="http://www.w3.org/1999/xlink" viewBox="0 0 558.95 573"><defs><style>.cls-1{fill:#373938;}.cls-2{fill:url(#linear-gradient);}.cls-3{fill:url(#linear-gradient-2);}.cls-4{fill:url(#linear-gradient-3);}.cls-5{fill:url(#linear-gradient-4);}.cls-6{fill:url(#linear-gradient-5);}.cls-7{fill:url(#linear-gradient-6);}.cls-8{fill:url(#linear-gradient-8);}.cls-9{fill:url(#linear-gradient-9);}.cls-10{fill:url(#linear-gradient-10);}.cls-11{fill:url(#linear-gradient-11);}.cls-12{fill:url(#linear-gradient-13);}.cls-13{fill:url(#linear-gradient-15);}.cls-14{fill:url(#linear-gradient-16);}.cls-15{fill:url(#linear-gradient-17);}.cls-16{fill:url(#linear-gradient-18);}.cls-17{fill:url(#linear-gradient-19);}.cls-18{fill:url(#linear-gradient-20);}.cls-19{fill:url(#linear-gradient-22);}.cls-20{fill:url(#linear-gradient-23);}.cls-21{fill:url(#linear-gradient-24);}.cls-22{fill:url(#linear-gradient-25);}.cls-23{fill:url(#linear-gradient-27);}</style><linearGradient id="linear-gradient" x1="447.32" y1="-0.86" x2="447.32" y2="570.13" gradientUnits="userSpaceOnUse"><stop offset="0.01" stop-color="#26a8e0"/><stop offset="0.5" stop-color="#266ba2"/><stop offset="1" stop-color="#2d398e"/></linearGradient><linearGradient id="linear-gradient-2" x1="123.24" y1="-0.86" x2="123.24" y2="570.13" xlink:href="#linear-gradient"/><linearGradient id="linear-gradient-3" x1="343.71" y1="-0.86" x2="343.71" y2="570.13" xlink:href="#linear-gradient"/><linearGradient id="linear-gradient-4" x1="506.48" y1="-0.86" x2="506.48" y2="570.13" xlink:href="#linear-gradient"/><linearGradient id="linear-gradient-5" x1="227.55" y1="-0.86" x2="227.55" y2="570.13" xlink:href="#linear-gradient"/><linearGradient id="linear-gradient-6" x1="447.33" y1="-0.86" x2="447.33" y2="570.13" xlink:href="#linear-gradient"/><linearGradient id="linear-gradient-8" x1="53.41" y1="-0.86" x2="53.41" y2="570.13" xlink:href="#linear-gradient"/><linearGradient id="linear-gradient-9" x1="343.72" y1="-0.86" x2="343.72" y2="570.13" xlink:href="#linear-gradient"/><linearGradient id="linear-gradient-10" x1="53.4" y1="-0.86" x2="53.4" y2="570.13" xlink:href="#linear-gradient"/><linearGradient id="linear-gradient-11" x1="123.23" y1="-0.86" x2="123.23" y2="570.13" xlink:href="#linear-gradient"/><linearGradient id="linear-gradient-13" x1="9.69" y1="-0.86" x2="9.69" y2="570.13" xlink:href="#linear-gradient"/><linearGradient id="linear-gradient-15" x1="349.15" y1="-0.86" x2="349.15" y2="570.13" xlink:href="#linear-gradient"/><linearGradient id="linear-gradient-16" x1="182.77" y1="-0.86" x2="182.77" y2="570.13" xlink:href="#linear-gradient"/><linearGradient id="linear-gradient-17" x1="295.97" y1="-0.86" x2="295.97" y2="570.13" xlink:href="#linear-gradient"/><linearGradient id="linear-gradient-18" x1="379.52" y1="-0.86" x2="379.52" y2="570.13" xlink:href="#linear-gradient"/><linearGradient id="linear-gradient-19" x1="236.33" y1="-0.86" x2="236.33" y2="570.13" xlink:href="#linear-gradient"/><linearGradient id="linear-gradient-20" x1="349.16" y1="-0.86" x2="349.16" y2="570.13" xlink:href="#linear-gradient"/><linearGradient id="linear-gradient-22" x1="146.93" y1="-0.86" x2="146.93" y2="570.13" xlink:href="#linear-gradient"/><linearGradient id="linear-gradient-23" x1="295.98" y1="-0.86" x2="295.98" y2="570.13" xlink:href="#linear-gradient"/><linearGradient id="linear-gradient-24" x1="146.92" y1="-0.86" x2="146.92" y2="570.13" xlink:href="#linear-gradient"/><linearGradient id="linear-gradient-25" x1="182.77" y1="-0.86" x2="182.77" y2="570.13" xlink:href="#linear-gradient"/><linearGradient id="linear-gradient-27" x1="124.49" y1="-0.86" x2="124.49" y2="570.13" xlink:href="#linear-gradient"/></defs><g id="Layer_2" data-name="Layer 2"><g id="Layer_1-2" data-name="Layer 1"><path class="cls-1" d="M104,381.23l-53,21.95a211.15,211.15,0,0,0,58.82,58.48L144.39,427A180.67,180.67,0,0,1,104,381.23Z"/><path class="cls-1" d="M313.41,115.43a178.4,178.4,0,0,1,38.68,18.24l4.5-10.87A210.59,210.59,0,0,0,313.41,96Z"/><path class="cls-1" d="M164.16,440.69l-33.23,33.24a207.86,207.86,0,0,0,71.44,21.23l13.79-33.31A178.69,178.69,0,0,1,164.16,440.69Z"/><path class="cls-1" d="M77.45,298.4H15.9a208.77,208.77,0,0,0,22.92,84.17l53.93-22.32A179,179,0,0,1,77.45,298.4Z"/><path class="cls-1" d="M257,106.37a182.38,182.38,0,0,1,32.77,3.09V86.77A209.91,209.91,0,0,0,227.5,76.7l12.64,30.52C245.69,106.69,251.33,106.37,257,106.37Z"/><path class="cls-1" d="M144.39,146.05l-34.65-34.63A210.79,210.79,0,0,0,50.91,169.9l53,22A180.35,180.35,0,0,1,144.39,146.05Z"/><path class="cls-1" d="M92.75,212.84,38.82,190.51A208.3,208.3,0,0,0,15.9,274.7H77.45A178.75,178.75,0,0,1,92.75,212.84Z"/><path class="cls-1" d="M371.81,425.14l3.43,8.33a209.51,209.51,0,0,0,25.21-31.28L397.31,399A180.4,180.4,0,0,1,371.81,425.14Z"/><path class="cls-1" d="M216.16,111.21,202.37,77.9a208.75,208.75,0,0,0-71.46,21.22l33.23,33.24A178.74,178.74,0,0,1,216.16,111.21Z"/><path class="cls-1" d="M397.32,174.05l3.15-3.15a209.11,209.11,0,0,0-25.23-31.31l-3.43,8.32A180.15,180.15,0,0,1,397.32,174.05Z"/><path class="cls-1" d="M313.43,457.61V477a211.47,211.47,0,0,0,43.16-26.78l-4.51-10.88A177.4,177.4,0,0,1,313.43,457.61Z"/><path class="cls-1" d="M257,466.67c-5.68,0-11.32-.33-16.86-.85L227.5,496.38a210.24,210.24,0,0,0,62.28-10.09V463.57A179.61,179.61,0,0,1,257,466.67Z"/><path class="cls-1" d="M425.08,222.55l.17-.07A210.78,210.78,0,0,0,412.8,192l-1.75,1.75A178.8,178.8,0,0,1,425.08,222.55Z"/><path class="cls-1" d="M411.05,379.27l1.74,1.76a208.66,208.66,0,0,0,12.46-30.43l-.17-.07A179,179,0,0,1,411.05,379.27Z"/><path class="cls-2" d="M438.7,415.83l72.43,30a288.27,288.27,0,0,1-80.3,79.86l-47.32-47.31A246.44,246.44,0,0,0,438.7,415.83Z"/><path class="cls-3" d="M152.7,52.9A243.58,243.58,0,0,0,99.9,77.8L93.77,63A285.38,285.38,0,0,1,152.7,26.42Z"/><path class="cls-4" d="M356.51,497l45.38,45.37a284.37,284.37,0,0,1-97.53,28.94L285.54,525.9A244.67,244.67,0,0,0,356.51,497Z"/><path class="cls-5" d="M474.9,302.71H559a285.08,285.08,0,0,1-31.3,115L454,387.19A244.34,244.34,0,0,0,474.9,302.71Z"/><path class="cls-6" d="M229.77,40.53A248.57,248.57,0,0,0,185,44.74v-31A286.84,286.84,0,0,1,270.07,0L252.8,41.71C245.2,41,237.53,40.53,229.77,40.53Z"/><path class="cls-7" d="M383.52,94.71l47.31-47.3a288.61,288.61,0,0,1,80.32,79.86l-72.43,30A246.21,246.21,0,0,0,383.52,94.71Z"/><path class="cls-5" d="M454,185.91l73.66-30.5a284.45,284.45,0,0,1,31.28,115H474.9A243.34,243.34,0,0,0,454,185.91Z"/><path class="cls-8" d="M73,475.8l-4.69,11.36a284.53,284.53,0,0,1-34.43-42.73l4.3-4.31A246.79,246.79,0,0,0,73,475.8Z"/><path class="cls-9" d="M285.54,47.13,304.36,1.66a284.39,284.39,0,0,1,97.54,29L356.53,76A244.14,244.14,0,0,0,285.54,47.13Z"/><path class="cls-10" d="M38.13,133l-4.3-4.31A286.5,286.5,0,0,1,68.28,85.9L73,97.25A248.06,248.06,0,0,0,38.13,133Z"/><path class="cls-11" d="M152.69,520.12v26.5a286.78,286.78,0,0,1-58.92-36.54l6.14-14.83A243.77,243.77,0,0,0,152.69,520.12Z"/><path class="cls-6" d="M229.77,532.48c7.76,0,15.42-.47,23-1.17L270.07,573a286.19,286.19,0,0,1-85-13.76v-31A245.71,245.71,0,0,0,229.77,532.48Z"/><path class="cls-12" d="M.24,199.17,0,199.08a285.12,285.12,0,0,1,17-41.57l2.38,2.39A245.9,245.9,0,0,0,.24,199.17Z"/><path class="cls-12" d="M19.38,413.16,17,415.55A283.48,283.48,0,0,1,0,374l.24-.1A244.26,244.26,0,0,0,19.38,413.16Z"/><path class="cls-13" d="M344.72,352.92l37.18,15.4a147.69,147.69,0,0,1-41.21,41L316.4,385A126.47,126.47,0,0,0,344.72,352.92Z"/><path class="cls-14" d="M197.91,166.59a126.2,126.2,0,0,0-27.11,12.77l-3.17-7.6A147.29,147.29,0,0,1,197.91,153Z"/><path class="cls-15" d="M302.54,394.61l23.29,23.31a146.27,146.27,0,0,1-50.06,14.88l-9.66-23.36A124.62,124.62,0,0,0,302.54,394.61Z"/><path class="cls-16" d="M363.32,294.84h43.14a146.22,146.22,0,0,1-16.06,59l-37.81-15.65A125.55,125.55,0,0,0,363.32,294.84Z"/><path class="cls-17" d="M237.47,160.23a127.56,127.56,0,0,0-23,2.17V146.49a147.16,147.16,0,0,1,43.65-7.06l-8.87,21.41C245.4,160.45,241.46,160.23,237.47,160.23Z"/><path class="cls-18" d="M316.4,188.05l24.29-24.27a147.59,147.59,0,0,1,41.22,41l-37.18,15.4A126.28,126.28,0,0,0,316.4,188.05Z"/><path class="cls-16" d="M352.59,234.89l37.83-15.66a146.32,146.32,0,0,1,16,59H363.32A125.39,125.39,0,0,0,352.59,234.89Z"/><path class="cls-19" d="M157,383.71l-2.39,5.83a146,146,0,0,1-17.68-21.93l2.21-2.2A126.63,126.63,0,0,0,157,383.71Z"/><path class="cls-20" d="M266.11,163.61l9.66-23.33a146,146,0,0,1,50.08,14.86l-23.3,23.32A124.61,124.61,0,0,0,266.11,163.61Z"/><path class="cls-21" d="M139.1,207.67l-2.22-2.19a147.4,147.4,0,0,1,17.69-22l2.39,5.84A126.69,126.69,0,0,0,139.1,207.67Z"/><path class="cls-22" d="M197.9,406.48v13.6a147.4,147.4,0,0,1-30.27-18.76l3.17-7.63A125.22,125.22,0,0,0,197.9,406.48Z"/><path class="cls-17" d="M237.47,412.82c4,0,7.93-.24,11.82-.58l8.87,21.4a146.52,146.52,0,0,1-43.65-7.07V410.65A126.58,126.58,0,0,0,237.47,412.82Z"/><path class="cls-23" d="M119.64,241.68l-.12,0a148.57,148.57,0,0,1,8.71-21.35l1.23,1.22A125.77,125.77,0,0,0,119.64,241.68Z"/><path class="cls-23" d="M129.46,351.56l-1.22,1.22a146.32,146.32,0,0,1-8.72-21.33l.12-.06A124.15,124.15,0,0,0,129.46,351.56Z"/></g></g></svg>